<svg xmlns="http://www.w3.org/2000/svg" version="1.1" xmlns:xlink="http://www.w3.org/1999/xlink" xmlns:svgjs="http://svgjs.dev/svgjs"
     width="1000" height="623" viewBox="0 0 1000 623"><g transform="matrix(1,0,0,1,-0.6060606060606233,0.2522267206477409)"><svg viewBox="0 0 396 247" data-background-color="#ffffff" preserveAspectRatio="xMidYMid meet" height="623" width="1000" xmlns="http://www.w3.org/2000/svg" xmlns:xlink="http://www.w3.org/1999/xlink"><defs></defs><g id="tight-bounds" transform="matrix(1,0,0,1,0.2400000000000091,-0.09999999999999432)"><svg viewBox="0 0 395.52 247.2" height="247.2" width="395.52"><g><svg></svg></g><g><svg viewBox="0 0 395.52 247.2" height="247.2" width="395.52"><g transform="matrix(5.108333333333333, 0, 0, 5.108333333333333, 75.16, 1)"><svg xmlns="http://www.w3.org/2000/svg" xmlns:xlink="http://www.w3.org/1999/xlink" version="1.0" x="0" y="0" viewBox="1 1 48 48" enable-background="new 0 0 50 50" xml:space="preserve" height="48" width="48" class="icon-none" data-fill-palette-color="accent" id="none"><g fill="#ff908b" data-fill-palette-color="accent"><g fill="#ff908b" data-fill-palette-color="accent"><rect x="1" y="1" fill="#ff908b" width="23" height="5" data-fill-palette-color="accent"></rect><rect x="1" y="10" fill="#ff908b" width="23" height="5" data-fill-palette-color="accent"></rect><rect x="1" y="19" fill="#ff908b" width="23" height="5" data-fill-palette-color="accent"></rect></g><g fill="#ff908b" data-fill-palette-color="accent"><rect x="26" y="26" fill="#ff908b" width="23" height="5" data-fill-palette-color="accent"></rect><rect x="26" y="35" fill="#ff908b" width="23" height="5" data-fill-palette-color="accent"></rect><rect x="26" y="44" fill="#ff908b" width="23" height="5" data-fill-palette-color="accent"></rect></g><g fill="#ff908b" data-fill-palette-color="accent"><rect x="19" y="26" fill="#ff908b" width="5" height="23" data-fill-palette-color="accent"></rect><rect x="10" y="26" fill="#ff908b" width="5" height="23" data-fill-palette-color="accent"></rect><rect x="1" y="26" fill="#ff908b" width="5" height="23" data-fill-palette-color="accent"></rect></g><g fill="#ff908b" data-fill-palette-color="accent"><rect x="44" y="1" fill="#ff908b" width="5" height="23" data-fill-palette-color="accent"></rect><rect x="35" y="1" fill="#ff908b" width="5" height="23" data-fill-palette-color="accent"></rect><rect x="26" y="1" fill="#ff908b" width="5" height="23" data-fill-palette-color="accent"></rect></g></g></svg></g><rect width="348.05760000000004" height="60.1368082257308" fill="#ffffff" y="93.53159588713459" x="23.731199999999973" data-fill-palette-color="quaternary"></rect><g transform="matrix(1,0,0,1,39.55199999999999,103.17520411420463)"><svg viewBox="0 0 316.416 40.84959177159071" height="40.84959177159071" width="316.416"><g><svg viewBox="0 0 316.416 40.84959177159071" height="40.84959177159071" width="316.416"><g><svg viewBox="0 0 316.416 40.84959177159071" height="40.84959177159071" width="316.416"><g><svg viewBox="0 0 316.416 40.84959177159071" height="40.84959177159071" width="316.416"><g><svg viewBox="0 0 316.416 40.84959177159071" height="40.84959177159071" width="316.416"><g transform="matrix(1,0,0,1,0,0)"><svg width="316.416" viewBox="4.199999809265137 -36 281.92999267578125 36.400001525878906" height="40.84959177159071" data-palette-color="#ed1703"><path d="M12.25-2.55L12.25-2.55 22.9-2.55Q25.55-2.55 26.55-4.65L26.55-4.65Q27.15-4.5 27.58-3.98 28-3.45 28-2.9L28-2.9Q28 0 22.7 0L22.7 0 12.35 0Q8.75 0 7.05-1.4 5.35-2.8 5.35-6L5.35-6 5.35-32.3Q5.35-33.45 4.2-33.9L4.2-33.9Q5.25-35.6 8.05-35.6L8.05-35.6 23.6-35.6Q28-35.6 28-33.4L28-33.4Q28-32 26.55-31.65L26.55-31.65Q25.45-33 22.9-33L22.9-33 8.55-33 8.55-19.55 20.1-19.55Q22.5-19.55 23.53-19.23 24.55-18.9 24.55-17.82 24.55-16.75 23.4-16.2L23.4-16.2Q22.3-16.95 19.75-16.95L19.75-16.95 8.55-16.95 8.55-5.9Q8.55-4.1 9.4-3.33 10.25-2.55 12.25-2.55ZM73.9-30.35L73.9-30.35Q73.9-29.35 73.3-28.75 72.7-28.15 71.82-28.15 70.95-28.15 70.55-28.3L70.55-28.3Q70.59-28.55 70.59-28.75L70.59-28.75Q70.59-30.4 68.84-31.73 67.09-33.05 63.6-33.05L63.6-33.05Q58.75-33.05 55.07-29.08 51.4-25.1 51.4-17.85 51.4-10.6 54.6-6.58 57.8-2.55 63.5-2.55L63.5-2.55Q66.45-2.55 68.97-3.7 71.5-4.85 73.09-6.45L73.09-6.45Q73.9-6.35 73.9-5.25L73.9-5.25Q73.9-3.65 70.55-1.63 67.2 0.4 62.6 0.4L62.6 0.4Q56.3 0.4 52.05-4.38 47.8-9.15 47.8-17.3 47.8-25.45 52.67-30.73 57.55-36 64.5-36L64.5-36Q68.55-36 71.22-34.33 73.9-32.65 73.9-30.35ZM84.44-16.75Q85.09-9.5 88.79-5.85 92.49-2.2 97.67-2.2 102.84-2.2 106.14-6.8L106.14-6.8Q108.84-10.6 108.84-16.4L108.84-16.4Q108.84-17.5 108.74-18.75L108.74-18.75Q108.19-26.05 104.47-29.75 100.74-33.45 95.52-33.45 90.29-33.45 87.04-28.8L87.04-28.8Q84.34-25 84.34-19.3L84.34-19.3Q84.34-18.05 84.44-16.75L84.44-16.75ZM96.62-36Q103.39-36 107.64-31.15 111.89-26.3 111.89-17.93 111.89-9.55 107.62-4.58 103.34 0.4 96.59 0.4 89.84 0.4 85.54-4.5 81.24-9.4 81.24-17.78 81.24-26.15 85.54-31.08 89.84-36 96.62-36ZM158.89-0.4L158.89-0.4Q157.99 0.4 156.99 0.4 155.99 0.4 155.52-0.28 155.04-0.95 154.79-2.55L154.79-2.55 152.79-30.1 140.74-1.65Q140.39-0.6 139.19-0.6 137.99-0.6 137.64-1.65L137.64-1.65 126.04-30.15 124.09-2.7Q123.94-1.05 123.42-0.33 122.89 0.4 121.92 0.4 120.94 0.4 120.04-0.4L120.04-0.4Q120.59-0.8 120.79-2.7L120.79-2.7 123.04-33Q123.09-34.5 122.39-35.2L122.39-35.2Q123.44-36 124.24-36L124.24-36Q126.69-36 127.94-33.05L127.94-33.05 139.24-5.45 150.99-33.05Q152.34-36 154.54-36L154.54-36Q155.39-36 156.64-35.2L156.64-35.2Q155.89-34.65 155.89-33.35L155.89-33.35Q155.89-33.2 155.89-33.05L155.89-33.05 158.19-2.7Q158.29-0.9 158.89-0.4ZM175.44-2.55L175.44-2.55 186.09-2.55Q188.74-2.55 189.74-4.65L189.74-4.65Q190.34-4.5 190.76-3.98 191.19-3.45 191.19-2.9L191.19-2.9Q191.19 0 185.89 0L185.89 0 175.54 0Q171.94 0 170.24-1.4 168.54-2.8 168.54-6L168.54-6 168.54-32.3Q168.54-33.45 167.39-33.9L167.39-33.9Q168.44-35.6 171.24-35.6L171.24-35.6 186.79-35.6Q191.19-35.6 191.19-33.4L191.19-33.4Q191.19-32 189.74-31.65L189.74-31.65Q188.64-33 186.09-33L186.09-33 171.74-33 171.74-19.55 183.29-19.55Q185.69-19.55 186.71-19.23 187.74-18.9 187.74-17.82 187.74-16.75 186.59-16.2L186.59-16.2Q185.49-16.95 182.94-16.95L182.94-16.95 171.74-16.95 171.74-5.9Q171.74-4.1 172.59-3.33 173.44-2.55 175.44-2.55ZM202.89-32.9L202.89-17.65 210.29-17.65Q214.69-17.65 216.91-19.65 219.14-21.65 219.14-25.23 219.14-28.8 216.91-30.85 214.69-32.9 210.29-32.9L210.29-32.9 202.89-32.9ZM223.49-2L223.49-2Q223.64-2 223.79-2L223.79-2Q222.79 0.35 220.84 0.35L220.84 0.35Q219.69 0.35 218.94-0.28 218.19-0.9 216.79-2.75L216.79-2.75 207.89-15 202.94-15 202.94-2.55Q202.94-1.4 204.09-1.05L204.09-1.05Q203.29 0.4 201.94 0.4L201.94 0.4Q199.74 0.4 199.74-2.45L199.74-2.45 199.74-32.3Q199.74-33.45 198.59-33.9L198.59-33.9Q199.64-35.6 202.44-35.6L202.44-35.6 210.24-35.6Q216.04-35.6 219.34-32.88 222.64-30.15 222.64-25.5 222.64-20.85 219.84-18.18 217.04-15.5 212.04-15.05L212.04-15.05 220.99-3.3Q221.99-2 223.49-2ZM254.48-30.35L254.48-30.35Q254.48-29.35 253.88-28.75 253.28-28.15 252.41-28.15 251.53-28.15 251.13-28.3L251.13-28.3Q251.18-28.55 251.18-28.75L251.18-28.75Q251.18-30.4 249.43-31.73 247.68-33.05 244.18-33.05L244.18-33.05Q239.33-33.05 235.66-29.08 231.98-25.1 231.98-17.85 231.98-10.6 235.18-6.58 238.38-2.55 244.08-2.55L244.08-2.55Q247.03-2.55 249.56-3.7 252.08-4.85 253.68-6.45L253.68-6.45Q254.48-6.35 254.48-5.25L254.48-5.25Q254.48-3.65 251.13-1.63 247.78 0.4 243.18 0.4L243.18 0.4Q236.88 0.4 232.63-4.38 228.38-9.15 228.38-17.3 228.38-25.45 233.26-30.73 238.13-36 245.08-36L245.08-36Q249.13-36 251.81-34.33 254.48-32.65 254.48-30.35ZM270.38-2.55L270.38-2.55 281.03-2.55Q283.68-2.55 284.68-4.65L284.68-4.65Q285.28-4.5 285.71-3.98 286.13-3.45 286.13-2.9L286.13-2.9Q286.13 0 280.83 0L280.83 0 270.48 0Q266.88 0 265.18-1.4 263.48-2.8 263.48-6L263.48-6 263.48-32.3Q263.48-33.45 262.33-33.9L262.33-33.9Q263.38-35.6 266.18-35.6L266.18-35.6 281.73-35.6Q286.13-35.6 286.13-33.4L286.13-33.4Q286.13-32 284.68-31.65L284.68-31.65Q283.58-33 281.03-33L281.03-33 266.68-33 266.68-19.55 278.23-19.55Q280.63-19.55 281.66-19.23 282.68-18.9 282.68-17.82 282.68-16.75 281.53-16.2L281.53-16.2Q280.43-16.95 277.88-16.95L277.88-16.95 266.68-16.95 266.68-5.9Q266.68-4.1 267.53-3.33 268.38-2.55 270.38-2.55Z" opacity="1" transform="matrix(1,0,0,1,0,0)" fill="#ed1703" class="undefined-text-0" data-fill-palette-color="primary" id="text-0"></path></svg></g></svg></g></svg></g></svg></g></svg></g></svg></g></svg></g></svg><rect width="395.52" height="247.2" fill="none" stroke="none" visibility="hidden"></rect></g></svg></g></svg>
